<?xml version="1.0" encoding="utf-8" ?>
<svg baseProfile="tiny" height="100%" version="1.2" width="100%" xmlns="http://www.w3.org/2000/svg" xmlns:ev="http://www.w3.org/2001/xml-events" xmlns:xlink="http://www.w3.org/1999/xlink"><defs /><rect fill="none" height="1024" width="1024" x="0" y="0" /><path d="M 645,569 L 644,570 L 640,570 L 639,571 L 637,571 L 636,572 L 634,572 L 632,574 L 631,574 L 630,575 L 629,575 L 621,583 L 620,582 L 620,571 L 602,571 L 602,686 L 620,686 L 620,644 L 621,643 L 629,651 L 630,651 L 632,653 L 633,653 L 634,654 L 635,654 L 636,655 L 638,655 L 639,656 L 642,656 L 643,657 L 658,657 L 659,656 L 662,656 L 663,655 L 665,655 L 666,654 L 667,654 L 668,653 L 669,653 L 670,652 L 671,652 L 672,651 L 673,651 L 677,647 L 678,647 L 679,646 L 679,645 L 683,641 L 683,640 L 684,639 L 684,638 L 685,637 L 685,636 L 686,635 L 686,634 L 687,633 L 687,632 L 688,631 L 688,628 L 689,627 L 689,624 L 690,623 L 690,603 L 689,602 L 689,598 L 688,597 L 688,596 L 687,595 L 687,593 L 686,592 L 686,591 L 685,590 L 685,589 L 684,588 L 684,587 L 683,586 L 683,585 L 674,576 L 673,576 L 671,574 L 670,574 L 669,573 L 668,573 L 667,572 L 665,572 L 664,571 L 662,571 L 661,570 L 657,570 L 656,569 Z" fill="#007BFF" /><path d="M 715,547 L 715,570 L 714,571 L 701,571 L 701,584 L 714,584 L 715,585 L 715,640 L 716,641 L 716,643 L 718,645 L 718,646 L 719,647 L 719,648 L 722,651 L 723,651 L 725,653 L 726,653 L 727,654 L 728,654 L 729,655 L 732,655 L 733,656 L 748,656 L 749,655 L 752,655 L 753,654 L 755,654 L 756,653 L 758,653 L 759,652 L 759,651 L 758,650 L 758,646 L 757,645 L 757,639 L 756,639 L 755,640 L 752,640 L 751,641 L 747,641 L 746,642 L 742,642 L 741,641 L 739,641 L 738,640 L 737,640 L 735,638 L 735,637 L 734,636 L 734,635 L 733,634 L 733,585 L 734,584 L 756,584 L 756,571 L 734,571 L 733,570 L 733,547 Z" fill="#007BFF" /><path d="M 779,543 L 779,655 L 797,655 L 797,543 Z" fill="#007BFF" /><path d="M 866,541 L 865,542 L 859,542 L 858,543 L 855,543 L 854,544 L 852,544 L 851,545 L 850,545 L 849,546 L 847,546 L 846,547 L 845,547 L 844,548 L 843,548 L 841,550 L 840,550 L 838,552 L 837,552 L 827,562 L 827,563 L 825,565 L 825,566 L 823,568 L 823,569 L 822,570 L 822,571 L 821,572 L 821,574 L 820,575 L 820,576 L 819,577 L 819,579 L 818,580 L 818,582 L 817,583 L 817,587 L 816,588 L 816,609 L 817,610 L 817,615 L 818,616 L 818,618 L 819,619 L 819,621 L 820,622 L 820,624 L 821,625 L 821,626 L 822,627 L 822,628 L 823,629 L 823,630 L 824,631 L 824,632 L 826,634 L 826,635 L 829,638 L 829,639 L 835,645 L 836,645 L 839,648 L 840,648 L 842,650 L 843,650 L 844,651 L 845,651 L 846,652 L 847,652 L 848,653 L 850,653 L 851,654 L 853,654 L 854,655 L 856,655 L 857,656 L 862,656 L 863,657 L 879,657 L 880,656 L 884,656 L 885,655 L 888,655 L 889,654 L 891,654 L 892,653 L 893,653 L 894,652 L 896,652 L 897,651 L 898,651 L 899,650 L 900,650 L 902,648 L 903,648 L 905,650 L 905,651 L 912,658 L 912,659 L 916,663 L 917,663 L 921,659 L 922,659 L 926,655 L 927,655 L 929,653 L 925,649 L 925,648 L 917,640 L 917,639 L 915,637 L 917,635 L 917,634 L 919,632 L 919,631 L 920,630 L 920,629 L 921,628 L 921,627 L 922,626 L 922,625 L 923,624 L 923,623 L 924,622 L 924,620 L 925,619 L 925,617 L 926,616 L 926,612 L 927,611 L 927,588 L 926,587 L 926,583 L 925,582 L 925,579 L 924,578 L 924,576 L 923,575 L 923,574 L 922,573 L 922,572 L 921,571 L 921,570 L 920,569 L 920,568 L 919,567 L 919,566 L 917,564 L 917,563 L 913,559 L 913,558 L 912,558 L 910,556 L 910,555 L 909,555 L 905,551 L 904,551 L 903,550 L 902,550 L 900,548 L 899,548 L 898,547 L 897,547 L 896,546 L 895,546 L 894,545 L 892,545 L 891,544 L 888,544 L 887,543 L 885,543 L 884,542 L 878,542 L 877,541 Z" fill="#007BFF" /><path d="M 527,541 L 526,542 L 518,542 L 517,543 L 514,543 L 513,544 L 510,544 L 509,545 L 508,545 L 507,546 L 505,546 L 504,547 L 503,547 L 502,548 L 501,548 L 500,549 L 499,549 L 497,551 L 496,551 L 493,554 L 492,554 L 487,559 L 487,560 L 484,563 L 484,564 L 481,567 L 481,568 L 480,569 L 480,570 L 479,571 L 479,572 L 478,573 L 478,574 L 477,575 L 477,577 L 476,578 L 476,580 L 475,581 L 475,584 L 474,585 L 474,589 L 473,590 L 473,609 L 474,610 L 474,614 L 475,615 L 475,618 L 476,619 L 476,621 L 477,622 L 477,624 L 478,625 L 478,626 L 479,627 L 479,628 L 480,629 L 480,630 L 481,631 L 481,632 L 483,634 L 483,635 L 486,638 L 486,639 L 491,644 L 492,644 L 496,648 L 497,648 L 498,649 L 499,649 L 501,651 L 502,651 L 503,652 L 504,652 L 505,653 L 507,653 L 508,654 L 509,654 L 510,655 L 513,655 L 514,656 L 517,656 L 518,657 L 527,657 L 528,658 L 530,658 L 531,657 L 540,657 L 541,656 L 545,656 L 546,655 L 548,655 L 549,654 L 551,654 L 552,653 L 553,653 L 554,652 L 555,652 L 556,651 L 557,651 L 558,650 L 559,650 L 561,648 L 562,648 L 565,645 L 566,645 L 573,638 L 573,637 L 576,634 L 576,633 L 578,631 L 578,630 L 579,629 L 579,628 L 580,627 L 580,626 L 581,625 L 581,623 L 582,622 L 582,620 L 583,619 L 583,618 L 584,617 L 584,614 L 585,613 L 585,608 L 586,607 L 586,591 L 585,590 L 585,585 L 584,584 L 584,581 L 583,580 L 583,578 L 582,577 L 582,575 L 581,574 L 581,573 L 580,572 L 580,571 L 579,570 L 579,569 L 578,568 L 578,567 L 576,565 L 576,564 L 573,561 L 573,560 L 566,553 L 565,553 L 563,551 L 562,551 L 560,549 L 559,549 L 558,548 L 557,548 L 556,547 L 555,547 L 554,546 L 553,546 L 552,545 L 550,545 L 549,544 L 547,544 L 546,543 L 542,543 L 541,542 L 534,542 L 533,541 Z" fill="#007BFF" /><path d="M 743,431 L 742,432 L 742,495 L 743,496 L 743,499 L 744,500 L 744,502 L 745,503 L 745,504 L 747,506 L 747,507 L 749,509 L 749,510 L 751,512 L 752,512 L 755,515 L 756,515 L 757,516 L 758,516 L 759,517 L 760,517 L 761,518 L 763,518 L 764,519 L 767,519 L 768,520 L 784,520 L 785,519 L 788,519 L 789,518 L 791,518 L 792,517 L 793,517 L 794,516 L 796,516 L 797,515 L 798,515 L 801,512 L 802,512 L 806,508 L 807,509 L 807,519 L 825,519 L 825,432 L 807,432 L 807,480 L 806,481 L 806,486 L 805,487 L 805,489 L 804,490 L 804,491 L 803,492 L 803,493 L 797,499 L 796,499 L 794,501 L 792,501 L 791,502 L 789,502 L 788,503 L 785,503 L 784,504 L 775,504 L 774,503 L 771,503 L 770,502 L 769,502 L 766,499 L 765,499 L 764,498 L 764,497 L 762,495 L 762,493 L 761,492 L 761,489 L 760,488 L 760,432 L 744,432 Z" fill="#007BFF" /><path d="M 676,430 L 675,431 L 668,431 L 667,432 L 663,432 L 662,433 L 661,433 L 660,434 L 658,434 L 657,435 L 656,435 L 655,436 L 654,436 L 652,438 L 651,438 L 648,441 L 647,441 L 643,445 L 643,446 L 640,449 L 640,450 L 638,452 L 638,453 L 637,454 L 637,455 L 636,456 L 636,457 L 635,458 L 635,461 L 634,462 L 634,464 L 633,465 L 633,470 L 632,471 L 632,479 L 633,480 L 633,486 L 634,487 L 634,490 L 635,491 L 635,493 L 636,494 L 636,495 L 637,496 L 637,497 L 638,498 L 638,499 L 639,500 L 639,501 L 641,503 L 641,504 L 648,511 L 649,511 L 652,514 L 653,514 L 654,515 L 655,515 L 656,516 L 657,516 L 658,517 L 659,517 L 660,518 L 662,518 L 663,519 L 666,519 L 667,520 L 673,520 L 674,521 L 683,521 L 684,520 L 689,520 L 690,519 L 693,519 L 694,518 L 696,518 L 697,517 L 698,517 L 699,516 L 700,516 L 701,515 L 702,515 L 703,514 L 704,514 L 706,512 L 707,512 L 715,504 L 715,503 L 717,501 L 717,500 L 718,499 L 718,498 L 719,497 L 719,496 L 720,495 L 720,494 L 721,493 L 721,491 L 722,490 L 722,487 L 723,486 L 723,480 L 724,479 L 724,472 L 723,471 L 723,466 L 722,465 L 722,462 L 721,461 L 721,459 L 720,458 L 720,456 L 719,455 L 719,454 L 717,452 L 717,451 L 716,450 L 716,449 L 712,445 L 712,444 L 711,443 L 710,443 L 705,438 L 704,438 L 702,436 L 701,436 L 700,435 L 699,435 L 698,434 L 696,434 L 695,433 L 693,433 L 692,432 L 690,432 L 689,431 L 681,431 L 680,430 Z" fill="#007BFF" /><path d="M 305,416 L 304,417 L 300,417 L 299,418 L 297,418 L 296,419 L 294,419 L 293,420 L 292,420 L 290,422 L 289,422 L 286,425 L 285,425 L 282,428 L 282,429 L 279,432 L 279,433 L 278,434 L 278,435 L 277,436 L 277,437 L 276,438 L 276,440 L 275,441 L 275,443 L 274,444 L 274,458 L 275,459 L 275,462 L 276,463 L 276,464 L 277,465 L 277,466 L 278,467 L 278,468 L 279,469 L 279,470 L 282,473 L 282,474 L 286,478 L 287,478 L 290,481 L 291,481 L 292,482 L 293,482 L 294,483 L 295,483 L 296,484 L 298,484 L 299,485 L 301,485 L 302,486 L 302,494 L 301,495 L 301,500 L 300,501 L 300,503 L 299,504 L 299,505 L 298,506 L 298,507 L 297,508 L 297,509 L 296,510 L 296,511 L 293,514 L 293,515 L 281,527 L 280,527 L 266,541 L 265,541 L 260,546 L 260,547 L 257,550 L 257,551 L 256,552 L 256,553 L 255,554 L 255,555 L 254,556 L 254,558 L 253,559 L 253,561 L 252,562 L 252,566 L 251,567 L 251,599 L 252,600 L 252,601 L 254,603 L 256,603 L 257,604 L 259,604 L 260,603 L 261,603 L 262,602 L 263,602 L 263,601 L 264,600 L 264,599 L 265,598 L 265,569 L 266,568 L 266,565 L 267,564 L 267,562 L 268,561 L 268,560 L 269,559 L 269,558 L 271,556 L 271,555 L 279,547 L 280,547 L 290,537 L 291,537 L 304,524 L 304,523 L 307,520 L 307,519 L 308,518 L 308,517 L 310,515 L 310,514 L 311,513 L 311,512 L 312,511 L 312,509 L 313,508 L 313,506 L 314,505 L 314,503 L 315,502 L 315,498 L 316,497 L 316,486 L 317,485 L 318,485 L 319,484 L 320,484 L 321,483 L 322,483 L 323,482 L 324,482 L 325,481 L 326,481 L 327,480 L 328,480 L 332,476 L 333,476 L 334,475 L 334,474 L 338,470 L 338,469 L 339,468 L 339,467 L 340,466 L 340,465 L 341,464 L 341,462 L 342,461 L 342,458 L 343,457 L 343,445 L 342,444 L 342,441 L 341,440 L 341,438 L 340,437 L 340,436 L 339,435 L 339,434 L 337,432 L 337,431 L 328,422 L 327,422 L 326,421 L 325,421 L 324,420 L 323,420 L 322,419 L 321,419 L 320,418 L 318,418 L 317,417 L 313,417 L 312,416 Z" fill="#007BFF" /><path d="M 530,402 L 529,403 L 526,403 L 525,404 L 522,404 L 521,405 L 519,405 L 518,406 L 517,406 L 516,407 L 515,407 L 514,408 L 513,408 L 512,409 L 511,409 L 510,410 L 509,410 L 506,413 L 505,413 L 495,423 L 495,424 L 493,426 L 493,427 L 491,429 L 491,430 L 490,431 L 490,432 L 489,433 L 489,435 L 488,436 L 488,437 L 487,438 L 487,440 L 486,441 L 486,443 L 485,444 L 485,447 L 484,448 L 484,453 L 483,454 L 483,471 L 484,472 L 484,476 L 485,477 L 485,480 L 486,481 L 486,483 L 487,484 L 487,486 L 488,487 L 488,488 L 489,489 L 489,490 L 490,491 L 490,492 L 491,493 L 491,494 L 492,495 L 492,496 L 494,498 L 494,499 L 498,503 L 498,504 L 501,507 L 502,507 L 506,511 L 507,511 L 509,513 L 510,513 L 511,514 L 512,514 L 513,515 L 514,515 L 515,516 L 516,516 L 517,517 L 519,517 L 520,518 L 522,518 L 523,519 L 526,519 L 527,520 L 532,520 L 533,521 L 546,521 L 547,520 L 553,520 L 554,519 L 556,519 L 557,518 L 559,518 L 560,517 L 562,517 L 563,516 L 564,516 L 565,515 L 566,515 L 567,514 L 568,514 L 569,513 L 570,513 L 571,512 L 572,512 L 574,510 L 575,510 L 578,507 L 578,506 L 577,505 L 577,504 L 575,502 L 575,501 L 574,500 L 574,499 L 573,498 L 573,497 L 571,495 L 571,494 L 570,493 L 569,494 L 568,494 L 566,496 L 565,496 L 563,498 L 562,498 L 561,499 L 560,499 L 559,500 L 557,500 L 556,501 L 555,501 L 554,502 L 552,502 L 551,503 L 547,503 L 546,504 L 535,504 L 534,503 L 530,503 L 529,502 L 527,502 L 526,501 L 525,501 L 524,500 L 523,500 L 522,499 L 521,499 L 519,497 L 518,497 L 512,491 L 512,490 L 510,488 L 510,487 L 508,485 L 508,484 L 507,483 L 507,482 L 506,481 L 506,479 L 505,478 L 505,477 L 504,476 L 504,472 L 503,471 L 503,451 L 504,450 L 504,447 L 505,446 L 505,444 L 506,443 L 506,442 L 507,441 L 507,440 L 508,439 L 508,438 L 509,437 L 509,436 L 512,433 L 512,432 L 518,426 L 519,426 L 521,424 L 522,424 L 524,422 L 525,422 L 526,421 L 528,421 L 529,420 L 531,420 L 532,419 L 547,419 L 548,420 L 551,420 L 552,421 L 554,421 L 555,422 L 556,422 L 557,423 L 558,423 L 559,424 L 560,424 L 561,425 L 562,425 L 564,427 L 565,427 L 567,429 L 568,429 L 569,430 L 570,430 L 571,429 L 571,428 L 572,427 L 572,426 L 573,425 L 573,424 L 574,423 L 574,422 L 576,420 L 576,419 L 577,418 L 577,417 L 578,416 L 578,415 L 576,413 L 575,413 L 573,411 L 572,411 L 571,410 L 570,410 L 568,408 L 566,408 L 565,407 L 564,407 L 563,406 L 562,406 L 561,405 L 559,405 L 558,404 L 555,404 L 554,403 L 550,403 L 549,402 Z" fill="#007BFF" /><path d="M 922,398 L 922,443 L 921,444 L 914,437 L 913,437 L 911,435 L 910,435 L 909,434 L 908,434 L 907,433 L 905,433 L 904,432 L 902,432 L 901,431 L 897,431 L 896,430 L 884,430 L 883,431 L 879,431 L 878,432 L 876,432 L 875,433 L 873,433 L 872,434 L 871,434 L 870,435 L 869,435 L 868,436 L 867,436 L 865,438 L 864,438 L 855,447 L 855,448 L 854,449 L 854,450 L 852,452 L 852,454 L 851,455 L 851,456 L 850,457 L 850,459 L 849,460 L 849,462 L 848,463 L 848,468 L 847,469 L 847,482 L 848,483 L 848,488 L 849,489 L 849,491 L 850,492 L 850,494 L 851,495 L 851,496 L 852,497 L 852,498 L 853,499 L 853,500 L 854,501 L 854,502 L 856,504 L 856,505 L 864,513 L 865,513 L 866,514 L 867,514 L 868,515 L 869,515 L 871,517 L 873,517 L 874,518 L 876,518 L 877,519 L 880,519 L 881,520 L 899,520 L 900,519 L 903,519 L 904,518 L 906,518 L 907,517 L 908,517 L 909,516 L 910,516 L 912,514 L 913,514 L 917,510 L 918,510 L 919,509 L 919,508 L 921,506 L 922,507 L 922,519 L 940,519 L 940,398 Z" fill="#007BFF" /><path d="M 597,397 L 597,519 L 615,519 L 615,397 Z" fill="#007BFF" /><path d="M 272,340 L 271,341 L 264,341 L 263,342 L 258,342 L 257,343 L 254,343 L 253,344 L 250,344 L 249,345 L 247,345 L 246,346 L 244,346 L 243,347 L 241,347 L 240,348 L 238,348 L 237,349 L 236,349 L 235,350 L 234,350 L 233,351 L 232,351 L 231,352 L 230,352 L 229,353 L 228,353 L 227,354 L 226,354 L 225,355 L 224,355 L 222,357 L 221,357 L 220,358 L 219,358 L 217,360 L 216,360 L 213,363 L 212,363 L 209,366 L 208,366 L 191,383 L 191,384 L 187,388 L 187,389 L 184,392 L 184,393 L 183,394 L 183,395 L 181,397 L 181,398 L 179,400 L 179,401 L 178,402 L 178,403 L 177,404 L 177,405 L 175,407 L 175,408 L 174,409 L 174,410 L 173,411 L 173,413 L 172,414 L 172,415 L 171,416 L 171,418 L 170,419 L 170,420 L 169,421 L 162,421 L 161,422 L 153,422 L 152,423 L 148,423 L 147,424 L 144,424 L 143,425 L 140,425 L 139,426 L 137,426 L 136,427 L 135,427 L 134,428 L 132,428 L 131,429 L 129,429 L 128,430 L 127,430 L 126,431 L 125,431 L 124,432 L 123,432 L 122,433 L 121,433 L 120,434 L 119,434 L 117,436 L 116,436 L 114,438 L 113,438 L 111,440 L 110,440 L 104,446 L 103,446 L 96,453 L 96,454 L 92,458 L 92,459 L 90,461 L 90,462 L 88,464 L 88,465 L 87,466 L 87,467 L 86,468 L 86,469 L 85,470 L 85,471 L 84,472 L 84,473 L 83,474 L 83,475 L 82,476 L 82,477 L 81,478 L 81,480 L 80,481 L 80,483 L 79,484 L 79,487 L 78,488 L 78,491 L 77,492 L 77,496 L 76,497 L 76,503 L 75,504 L 75,522 L 76,523 L 76,528 L 77,529 L 77,534 L 78,535 L 78,538 L 79,539 L 79,541 L 80,542 L 80,544 L 81,545 L 81,547 L 82,548 L 82,549 L 83,550 L 83,551 L 84,552 L 84,553 L 85,554 L 85,555 L 86,556 L 86,557 L 87,558 L 87,559 L 89,561 L 89,562 L 91,564 L 91,565 L 94,568 L 94,569 L 100,575 L 100,576 L 102,578 L 103,578 L 110,585 L 111,585 L 113,587 L 114,587 L 116,589 L 117,589 L 119,591 L 120,591 L 121,592 L 122,592 L 123,593 L 124,593 L 126,595 L 128,595 L 129,596 L 130,596 L 131,597 L 132,597 L 133,598 L 135,598 L 136,599 L 138,599 L 139,600 L 142,600 L 143,601 L 146,601 L 147,602 L 153,602 L 154,603 L 208,603 L 211,600 L 211,522 L 212,521 L 212,517 L 213,516 L 213,514 L 214,513 L 214,512 L 216,510 L 216,509 L 221,504 L 222,504 L 224,502 L 225,502 L 226,501 L 229,501 L 230,500 L 252,500 L 253,499 L 255,499 L 258,496 L 258,490 L 257,489 L 257,488 L 256,487 L 255,487 L 254,486 L 229,486 L 228,487 L 224,487 L 223,488 L 221,488 L 220,489 L 219,489 L 218,490 L 217,490 L 215,492 L 214,492 L 212,494 L 211,494 L 207,498 L 207,499 L 204,502 L 204,503 L 203,504 L 203,505 L 202,506 L 202,507 L 201,508 L 201,509 L 200,510 L 200,512 L 199,513 L 199,517 L 198,518 L 198,588 L 197,589 L 155,589 L 154,588 L 149,588 L 148,587 L 145,587 L 144,586 L 141,586 L 140,585 L 138,585 L 137,584 L 136,584 L 135,583 L 133,583 L 132,582 L 131,582 L 130,581 L 129,581 L 128,580 L 127,580 L 125,578 L 124,578 L 123,577 L 122,577 L 119,574 L 118,574 L 114,570 L 113,570 L 109,566 L 109,565 L 104,560 L 104,559 L 102,557 L 102,556 L 100,554 L 100,553 L 99,552 L 99,551 L 97,549 L 97,548 L 96,547 L 96,545 L 95,544 L 95,543 L 94,542 L 94,540 L 93,539 L 93,537 L 92,536 L 92,533 L 91,532 L 91,529 L 90,528 L 90,521 L 89,520 L 89,504 L 90,503 L 90,497 L 91,496 L 91,492 L 92,491 L 92,489 L 93,488 L 93,485 L 94,484 L 94,483 L 95,482 L 95,480 L 96,479 L 96,478 L 97,477 L 97,476 L 98,475 L 98,474 L 99,473 L 99,472 L 101,470 L 101,469 L 104,466 L 104,465 L 117,452 L 118,452 L 121,449 L 122,449 L 123,448 L 124,448 L 126,446 L 127,446 L 128,445 L 129,445 L 130,444 L 131,444 L 132,443 L 133,443 L 134,442 L 136,442 L 137,441 L 138,441 L 139,440 L 141,440 L 142,439 L 144,439 L 145,438 L 149,438 L 150,437 L 154,437 L 155,436 L 164,436 L 165,435 L 171,435 L 172,436 L 177,436 L 178,435 L 179,435 L 181,433 L 181,432 L 182,431 L 182,428 L 183,427 L 183,425 L 184,424 L 184,422 L 185,421 L 185,419 L 186,418 L 186,417 L 187,416 L 187,415 L 188,414 L 188,413 L 189,412 L 189,411 L 190,410 L 190,409 L 192,407 L 192,406 L 193,405 L 193,404 L 195,402 L 195,401 L 197,399 L 197,398 L 199,396 L 199,395 L 204,390 L 204,389 L 216,377 L 217,377 L 221,373 L 222,373 L 224,371 L 225,371 L 227,369 L 228,369 L 229,368 L 230,368 L 231,367 L 232,367 L 233,366 L 234,366 L 235,365 L 236,365 L 237,364 L 238,364 L 239,363 L 240,363 L 241,362 L 243,362 L 244,361 L 246,361 L 247,360 L 249,360 L 250,359 L 252,359 L 253,358 L 256,358 L 257,357 L 261,357 L 262,356 L 266,356 L 267,355 L 274,355 L 275,354 L 292,354 L 293,355 L 300,355 L 301,356 L 306,356 L 307,357 L 310,357 L 311,358 L 314,358 L 315,359 L 317,359 L 318,360 L 319,360 L 320,361 L 322,361 L 323,362 L 325,362 L 326,363 L 327,363 L 328,364 L 329,364 L 330,365 L 331,365 L 332,366 L 333,366 L 334,367 L 335,367 L 336,368 L 337,368 L 338,369 L 339,369 L 341,371 L 342,371 L 344,373 L 345,373 L 348,376 L 349,376 L 355,382 L 356,382 L 361,387 L 361,388 L 366,393 L 366,394 L 369,397 L 369,398 L 371,400 L 371,401 L 373,403 L 373,404 L 374,405 L 374,406 L 375,407 L 375,408 L 377,410 L 377,411 L 378,412 L 378,414 L 379,415 L 379,416 L 380,417 L 380,418 L 381,419 L 381,421 L 382,422 L 382,424 L 383,425 L 383,428 L 384,429 L 384,432 L 386,434 L 386,435 L 387,436 L 388,436 L 390,438 L 391,438 L 395,442 L 396,442 L 404,450 L 404,452 L 401,455 L 401,456 L 399,458 L 399,459 L 397,461 L 397,462 L 395,464 L 395,465 L 393,467 L 393,468 L 391,470 L 391,471 L 388,474 L 388,475 L 386,477 L 386,478 L 384,480 L 384,481 L 383,482 L 372,482 L 371,483 L 368,483 L 367,484 L 366,484 L 365,485 L 364,485 L 363,486 L 362,486 L 355,493 L 355,494 L 354,495 L 354,496 L 353,497 L 353,498 L 352,499 L 352,501 L 351,502 L 351,507 L 350,508 L 350,511 L 351,512 L 351,516 L 352,517 L 352,519 L 353,520 L 353,521 L 354,522 L 354,523 L 356,525 L 356,526 L 361,531 L 362,531 L 364,533 L 365,533 L 366,534 L 367,534 L 368,535 L 370,535 L 371,536 L 385,536 L 386,535 L 387,535 L 388,534 L 390,534 L 392,532 L 393,532 L 397,528 L 398,528 L 398,527 L 401,524 L 401,523 L 402,522 L 402,521 L 403,520 L 403,519 L 404,518 L 404,515 L 405,514 L 405,505 L 404,504 L 404,501 L 403,500 L 403,498 L 402,497 L 402,496 L 401,495 L 401,494 L 397,490 L 397,489 L 396,488 L 398,486 L 398,485 L 400,483 L 400,482 L 401,481 L 401,480 L 403,478 L 403,477 L 405,475 L 405,474 L 407,472 L 407,471 L 408,470 L 408,469 L 410,467 L 410,466 L 412,464 L 412,463 L 413,462 L 415,464 L 415,465 L 416,466 L 416,467 L 417,468 L 417,469 L 418,470 L 418,471 L 419,472 L 419,473 L 420,474 L 420,475 L 421,476 L 421,478 L 422,479 L 422,481 L 423,482 L 423,485 L 424,486 L 424,489 L 425,490 L 425,495 L 426,496 L 426,514 L 425,515 L 425,522 L 424,523 L 424,526 L 423,527 L 423,530 L 422,531 L 422,533 L 421,534 L 421,535 L 420,536 L 420,538 L 419,539 L 419,540 L 418,541 L 418,542 L 417,543 L 417,544 L 416,545 L 416,546 L 415,547 L 415,548 L 414,549 L 414,550 L 412,552 L 412,553 L 409,556 L 409,557 L 396,570 L 395,570 L 392,573 L 391,573 L 389,575 L 388,575 L 386,577 L 385,577 L 384,578 L 383,578 L 382,579 L 381,579 L 380,580 L 379,580 L 378,581 L 377,581 L 376,582 L 374,582 L 373,583 L 371,583 L 370,584 L 368,584 L 367,585 L 365,585 L 364,586 L 360,586 L 359,587 L 354,587 L 353,588 L 345,588 L 344,587 L 344,586 L 343,585 L 343,583 L 342,582 L 342,581 L 341,580 L 341,579 L 340,578 L 340,577 L 338,575 L 338,574 L 333,569 L 332,569 L 330,567 L 329,567 L 328,566 L 327,566 L 326,565 L 325,565 L 324,564 L 322,564 L 321,563 L 307,563 L 306,564 L 304,564 L 303,565 L 302,565 L 301,566 L 300,566 L 299,567 L 298,567 L 296,569 L 295,569 L 291,573 L 291,574 L 289,576 L 289,577 L 287,579 L 287,581 L 286,582 L 286,583 L 285,584 L 285,589 L 284,590 L 284,595 L 285,596 L 285,601 L 286,602 L 286,603 L 287,604 L 287,606 L 288,607 L 288,608 L 291,611 L 291,612 L 295,616 L 296,616 L 298,618 L 299,618 L 300,619 L 301,619 L 302,620 L 303,620 L 304,621 L 305,621 L 306,622 L 310,622 L 311,623 L 319,623 L 320,622 L 322,622 L 323,621 L 325,621 L 326,620 L 327,620 L 328,619 L 329,619 L 330,618 L 331,618 L 333,616 L 334,616 L 339,611 L 339,610 L 341,608 L 341,607 L 342,606 L 342,605 L 343,604 L 343,603 L 344,602 L 356,602 L 357,601 L 362,601 L 363,600 L 366,600 L 367,599 L 370,599 L 371,598 L 373,598 L 374,597 L 375,597 L 376,596 L 378,596 L 379,595 L 380,595 L 381,594 L 383,594 L 384,593 L 385,593 L 386,592 L 387,592 L 388,591 L 389,591 L 391,589 L 392,589 L 393,588 L 394,588 L 396,586 L 397,586 L 399,584 L 400,584 L 403,581 L 404,581 L 412,573 L 413,573 L 413,572 L 420,565 L 420,564 L 422,562 L 422,561 L 424,559 L 424,558 L 426,556 L 426,555 L 427,554 L 427,553 L 429,551 L 429,550 L 430,549 L 430,547 L 431,546 L 431,545 L 432,544 L 432,543 L 433,542 L 433,541 L 434,540 L 434,538 L 435,537 L 435,535 L 436,534 L 436,531 L 437,530 L 437,527 L 438,526 L 438,522 L 439,521 L 439,513 L 440,512 L 440,500 L 439,499 L 439,491 L 438,490 L 438,486 L 437,485 L 437,482 L 436,481 L 436,478 L 435,477 L 435,475 L 434,474 L 434,472 L 433,471 L 433,469 L 432,468 L 432,467 L 431,466 L 431,465 L 430,464 L 430,463 L 429,462 L 429,461 L 428,460 L 428,459 L 426,457 L 426,456 L 424,454 L 424,453 L 422,451 L 422,450 L 420,448 L 420,447 L 417,444 L 417,443 L 406,432 L 405,432 L 401,428 L 400,428 L 397,425 L 397,423 L 396,422 L 396,420 L 395,419 L 395,417 L 394,416 L 394,414 L 393,413 L 393,412 L 392,411 L 392,410 L 391,409 L 391,408 L 390,407 L 390,406 L 389,405 L 389,404 L 388,403 L 388,402 L 387,401 L 387,400 L 386,399 L 386,398 L 385,397 L 385,396 L 383,394 L 383,393 L 382,392 L 382,391 L 379,388 L 379,387 L 376,384 L 376,383 L 369,376 L 369,375 L 368,375 L 361,368 L 360,368 L 356,364 L 355,364 L 353,362 L 352,362 L 350,360 L 349,360 L 347,358 L 346,358 L 345,357 L 344,357 L 342,355 L 341,355 L 340,354 L 339,354 L 338,353 L 337,353 L 336,352 L 335,352 L 334,351 L 333,351 L 332,350 L 330,350 L 329,349 L 328,349 L 327,348 L 325,348 L 324,347 L 323,347 L 322,346 L 320,346 L 319,345 L 317,345 L 316,344 L 313,344 L 312,343 L 308,343 L 307,342 L 302,342 L 301,341 L 295,341 L 294,340 Z" fill="#007BFF" /></svg>